<?xml version="1.0" encoding="UTF-8"?>
<svg width="117" height="40" viewBox="0 0 117 40" fill="none" xmlns="http://www.w3.org/2000/svg">
<path fill-rule="evenodd" clip-rule="evenodd" d="M54.5942 18.8197C54.5942 15.0395 57.7236 12.0002 61.5241 12.0002C65.3499 12.0002 68.5001 15.0598 68.5001 18.8651L68.5 23.9926C68.5 28.5153 64.7867 32.1816 60.2061 32.1816H56.8183C55.59 32.1816 54.5942 31.1985 54.5942 29.9857C54.5942 28.7729 55.59 27.7898 56.8183 27.7898H60.2061C61.7325 27.7898 63.0513 26.9117 63.6725 25.6392H61.5012C57.6866 25.6392 54.5942 22.586 54.5942 18.8197ZM64.0519 21.2474V18.8651C64.0519 17.5131 62.9215 16.392 61.5241 16.392C60.152 16.392 59.0424 17.4928 59.0424 18.8197C59.0424 20.1605 60.1432 21.2474 61.5012 21.2474H64.0519Z" fill="#1B7C94"/>
<path fill-rule="evenodd" clip-rule="evenodd" d="M50.4641 12.3139C51.6924 12.3139 52.6882 13.297 52.6882 14.5098V29.9857C52.6882 31.1985 51.6924 32.1816 50.4641 32.1816C49.2358 32.1816 48.2401 31.1985 48.2401 29.9857V14.5098C48.2401 13.297 49.2358 12.3139 50.4641 12.3139Z" fill="#1B7C94"/>
<path fill-rule="evenodd" clip-rule="evenodd" d="M6.72406 12.209C7.95238 12.209 8.94812 13.1921 8.94812 14.4049V20.5743C8.94812 22.9999 10.9396 24.9662 13.3963 24.9662H29.6001V14.4049C29.6001 13.1921 30.5959 12.209 31.8242 12.209C33.0525 12.209 34.0483 13.1921 34.0483 14.4049V24.9662H36.6487C39.1054 24.9662 41.0969 22.9999 41.0969 20.5743V14.4049C41.0969 13.1921 42.0926 12.209 43.3209 12.209C44.5492 12.209 45.545 13.1921 45.545 14.4049V20.5743C45.545 25.4254 41.562 29.358 36.6487 29.358H13.3963C8.48299 29.358 4.5 25.4254 4.5 20.5743V14.4049C4.5 13.1921 5.49575 12.209 6.72406 12.209Z" fill="#1B7C94"/>
<path d="M17.9419 35.2531C16.5645 33.7584 17.6899 31.3642 19.7352 31.4378L23.0345 31.5565L21.7919 34.5765C21.1518 36.1322 19.0864 36.4952 17.9419 35.2531Z" fill="#1B7C94"/>
<path d="M32.5652 33.1747C32.5652 32.1063 33.4425 31.2402 34.5245 31.2402H39.714C40.7961 31.2402 41.6733 32.1063 41.6733 33.1747C41.6733 34.2431 40.7961 35.1092 39.714 35.1092H34.5245C33.4425 35.1092 32.5652 34.2431 32.5652 33.1747Z" fill="#1B7C94"/>
<path d="M97.854 6.77268C98.864 5.05689 100.73 4 102.749 4H112.5L100.595 24.535L96.2327 31.8638L95.2534 33.3854C94.2059 35.0129 92.3812 35.9998 90.4196 35.9998C88.427 35.9998 86.5782 34.9818 85.54 33.313L82.9229 29.1065L79.0039 22.4308L79.7319 22.9646C82.9253 25.3063 87.4857 24.3869 89.4797 20.9995L97.854 6.77268Z" fill="#1B7C94"/>
<path d="M74.1382 14.4069C70.3951 10.3085 73.4966 3.80144 79.0962 4.00465L88.1099 4.33175L84.754 12.5606C83.0042 16.8514 77.28 17.847 74.1382 14.4069Z" fill="#1B7C94"/>
</svg> 